<svg xmlns="http://www.w3.org/2000/svg" xmlns:xlink="http://www.w3.org/1999/xlink" xmlns:lucid="lucid" width="80" height="81"><g transform="translate(-100 -60)" lucid:page-tab-id="zCXn~_eZPB_~"><path d="M160 99.5c0 10.77-8.95 19.5-20 19.5s-20-8.73-20-19.5S128.95 80 140 80s20 8.73 20 19.5z" stroke="#000" stroke-width="2" fill-opacity="0"/><use xlink:href="#a" transform="matrix(1,0,0,1,120,80) translate(14.119000000000002 25.21)"/><path d="M120 120h40M120 130h40" stroke="#000" stroke-width="2" fill="none"/><defs><path d="M262 9C206 9 136 6 85 1v-701c55-8 125-8 187-8 221 0 326 133 326 353C598-133 489 9 262 9zm248-364c0-173-76-287-264-279-26 1-55 2-78 5v560c27 3 67 4 96 4 176 0 246-117 246-290" id="b"/><use transform="matrix(0.018,0,0,0.018,0,0)" xlink:href="#b" id="a"/></defs></g></svg>