<svg xmlns="http://www.w3.org/2000/svg" xmlns:xlink="http://www.w3.org/1999/xlink" xmlns:lucid="lucid" width="80" height="80"><g transform="translate(-200 -60)" lucid:page-tab-id="qCXntrj58Jd7"><path d="M260 100c0 11.05-8.95 20-20 20s-20-8.95-20-20 8.95-20 20-20 20 8.95 20 20z" stroke="#000" stroke-width="2" fill-opacity="0"/><use xlink:href="#a" transform="matrix(1,0,0,1,220,80) translate(14.119000000000002 25.21)"/><path d="M220 120h40" stroke="#000" stroke-width="2" fill="none"/><defs><path d="M262 9C206 9 136 6 85 1v-701c55-8 125-8 187-8 221 0 326 133 326 353C598-133 489 9 262 9zm248-364c0-173-76-287-264-279-26 1-55 2-78 5v560c27 3 67 4 96 4 176 0 246-117 246-290" id="b"/><use transform="matrix(0.018,0,0,0.018,0,0)" xlink:href="#b" id="a"/></defs></g></svg>