<svg xmlns="http://www.w3.org/2000/svg" xmlns:xlink="http://www.w3.org/1999/xlink" xmlns:lucid="lucid" width="80" height="80"><g transform="translate(-220 -80)" lucid:page-tab-id="cCXnxWx56mxN"><path d="M280 120c0 11.05-8.95 20-20 20s-20-8.95-20-20 8.95-20 20-20 20 8.95 20 20z" stroke="#000" stroke-width="2" fill-opacity="0"/><use xlink:href="#a" transform="matrix(1,0,0,1,240,100) translate(13.849 25.21)"/><path d="M240 140h40" stroke="#000" stroke-width="2" fill="none"/><defs><path d="M341 12C133 12 59-139 56-350c-2-213 86-362 285-362 209 0 284 150 287 362 2 214-87 362-287 362zm0-650c-145 0-200 119-197 288 3 154 48 288 197 288 146 0 202-119 199-288-3-155-49-288-199-288" id="b"/><use transform="matrix(0.018,0,0,0.018,0,0)" xlink:href="#b" id="a"/></defs></g></svg>