<svg xmlns="http://www.w3.org/2000/svg" xmlns:xlink="http://www.w3.org/1999/xlink" xmlns:lucid="lucid" width="80" height="81"><g transform="translate(-100 -60)" lucid:page-tab-id="XqXnpeKagFBm"><path d="M160 99.5c0 10.77-8.95 19.5-20 19.5s-20-8.73-20-19.5S128.95 80 140 80s20 8.73 20 19.5z" stroke="#000" stroke-width="2" fill-opacity="0"/><use xlink:href="#a" transform="matrix(1,0,0,1,120,80) translate(13.849 25.21)"/><path d="M120 120h40M120 130h40" stroke="#000" stroke-width="2" fill="none"/><defs><path d="M341 12C133 12 59-139 56-350c-2-213 86-362 285-362 209 0 284 150 287 362 2 214-87 362-287 362zm0-650c-145 0-200 119-197 288 3 154 48 288 197 288 146 0 202-119 199-288-3-155-49-288-199-288" id="b"/><use transform="matrix(0.018,0,0,0.018,0,0)" xlink:href="#b" id="a"/></defs></g></svg>